# xmcd
#
# Track frame offsets:
#	150
#	13676
#	30131
#	44698
#	59775
#	78356
#	98457
#	114668
#	130456
#	145385
#	162657
#	177113
#	194926
#	213135
#
# Disc length: 3103 seconds
#
# Revision: 1
# Processed by: cddbd v1.4PL0 Copyright (c) Steve Scherf et al.
# Submitted via: audiograbber 1.80
#
DISCID=ca0c1d0e
DTITLE=Various Artist - Hott Country 76
DYEAR=1900
DGENRE=
TTITLE0=Brooks and Dunn - Mu Heart Is Lost To You
TTITLE1=Diamond Rio - Beautiful Mess
TTITLE2=Phil Vassar - American Child
TTITLE3=Kenny Chesney - The Good Stuff
TTITLE4=Martina McBride - Where Would You Be
TTITLE5=Doc Walker - I'm Just Waiting
TTITLE6=Aaron Tippin - I'll Take Love Over Money
TTITLE7=Blackhawk - One Night In New Orleans
TTITLE8=Tammy Cochran - I Believe
TTITLE9=John Berry - Settle For Everything
TTITLE10=Jeffery Steele - Good To Go
TTITLE11=Shannon McNally - Now That I Know
TTITLE12=Natalie Merchant - Build A Levy
TTITLE13=Cassandra Wilson - The Weight
EXTD=
EXTT0=
EXTT1=
EXTT2=
EXTT3=
EXTT4=
EXTT5=
EXTT6=
EXTT7=
EXTT8=
EXTT9=
EXTT10=
EXTT11=
EXTT12=
EXTT13=
PLAYORDER=
